<svg width="35" height="35" viewBox="0 0 35 35" fill="none" xmlns="http://www.w3.org/2000/svg">
<path fill-rule="evenodd" clip-rule="evenodd" d="M17.216 3.66678C18.4328 3.66678 18.8947 3.67355 19.3085 3.79173C19.696 3.90239 20.0595 4.08416 20.3806 4.32775C20.7234 4.58787 21.0059 4.95334 21.736 5.92678L23.291 8.00007H17.4993H5.81875C4.62854 7.99257 3.66602 7.02541 3.66602 5.83344C3.66602 4.63683 4.63607 3.66678 5.83268 3.66678H17.216ZM2.16602 5.83249C2.16653 3.80788 3.80796 2.16678 5.83268 2.16678H17.216L17.3292 2.16676C18.3939 2.16654 19.0797 2.1664 19.7204 2.34939C20.2868 2.51114 20.8181 2.77679 21.2873 3.13281C21.8181 3.53561 22.2295 4.08432 22.8681 4.93624L22.8681 4.93626L22.936 5.02678L25.166 8.00007H25.6827L25.7157 8.00007C26.8078 8.00006 27.6733 8.00006 28.3709 8.05705C29.0843 8.11534 29.688 8.23695 30.2391 8.51779C31.1329 8.97319 31.8596 9.69984 32.315 10.5936C32.5958 11.1448 32.7174 11.7484 32.7757 12.4618C32.8327 13.1594 32.8327 14.0249 32.8327 15.117V15.1501V15.2917H30.6243L30.5886 15.2917C30.2745 15.2917 30.0748 15.2917 29.8999 15.3046C27.5521 15.4778 25.6854 17.3445 25.5122 19.6923C25.4993 19.8672 25.4993 20.0669 25.4993 20.3809V20.3809V20.381V20.381L25.4993 20.4167L25.4993 20.4524V20.4525V20.4525V20.4526C25.4993 20.7666 25.4993 20.9663 25.5122 21.1412C25.6854 23.489 27.5521 25.3557 29.8999 25.5289C30.0748 25.5418 30.2745 25.5418 30.5885 25.5417H30.5886H30.5886H30.5886L30.6244 25.5417H32.8327V25.6834V25.7164C32.8327 26.8086 32.8327 27.674 32.7757 28.3717C32.7174 29.0851 32.5958 29.6887 32.315 30.2399C31.8596 31.1336 31.1329 31.8603 30.2391 32.3157C29.688 32.5965 29.0843 32.7181 28.3709 32.7764C27.6733 32.8334 26.8078 32.8334 25.7157 32.8334H25.6827H9.31601H9.28299C8.19086 32.8334 7.32537 32.8334 6.62775 32.7764C5.91436 32.7181 5.31073 32.5965 4.75956 32.3157C3.86579 31.8603 3.13913 31.1336 2.68373 30.2399C2.4029 29.6887 2.28129 29.0851 2.223 28.3717C2.16601 27.674 2.16601 26.8085 2.16602 25.7164L2.16602 25.6834V8.75011V8.75007L2.16602 5.83344C2.16602 5.83313 2.16602 5.83281 2.16602 5.83249ZM32.8327 16.7917H30.6243C30.2628 16.7917 30.1227 16.7922 30.0103 16.8005C28.4039 16.919 27.1266 18.1963 27.0082 19.8027C26.9999 19.9151 26.9993 20.0551 26.9993 20.4167C26.9993 20.7783 26.9999 20.9184 27.0082 21.0308C27.1266 22.6372 28.4039 23.9144 30.0103 24.0329C30.1227 24.0412 30.2628 24.0417 30.6244 24.0417H32.8327V16.7917Z" fill="#34C759"/>
</svg>
