<svg width="31" height="30" viewBox="0 0 31 30" fill="none" xmlns="http://www.w3.org/2000/svg">
<path opacity="0.12" d="M12.6577 4.25251C13.5768 2.47356 14.0364 1.58408 14.6532 1.29553C15.1902 1.0443 15.8111 1.0443 16.3481 1.29553C16.9649 1.58408 17.4245 2.47356 18.3436 4.25251L19.8774 7.22118C20.1662 7.78001 20.3105 8.05943 20.5188 8.27291C20.7031 8.46191 20.923 8.61253 21.1658 8.7161C21.4402 8.8331 21.7529 8.86673 22.3783 8.93397L25.1597 9.23305C27.4198 9.47608 28.5499 9.59759 29.0523 10.1127C29.4888 10.5601 29.6909 11.1859 29.5988 11.8042C29.4926 12.5159 28.6472 13.2755 26.9565 14.7949L24.8557 16.6827C24.276 17.2036 23.9862 17.464 23.8192 17.7827C23.6716 18.0643 23.5932 18.377 23.5907 18.6949C23.5877 19.0547 23.7205 19.421 23.9862 20.1536L24.8733 22.6005C25.7127 24.9156 26.1324 26.0732 25.8689 26.7671C25.6403 27.3691 25.1358 27.8241 24.5136 27.9897C23.7963 28.1807 22.6879 27.6444 20.4712 26.5718L16.8945 24.8411C16.3827 24.5935 16.1269 24.4697 15.8592 24.4209C15.6221 24.3777 15.3792 24.3777 15.1421 24.4209C14.8744 24.4697 14.6186 24.5935 14.1069 24.8411L10.5301 26.5718C8.3134 27.6444 7.20504 28.1807 6.48771 27.9898C5.86546 27.8241 5.36102 27.3691 5.13241 26.7671C4.86886 26.0732 5.28856 24.9156 6.12795 22.6005L7.01513 20.1536C7.28076 19.421 7.41358 19.0547 7.41065 18.6949C7.40806 18.377 7.32973 18.0643 7.18214 17.7827C7.01512 17.464 6.72529 17.2036 6.14563 16.6827L4.04483 14.7949C2.35406 13.2755 1.50867 12.5159 1.40255 11.8042C1.31037 11.1859 1.51253 10.5601 1.94898 10.1127C2.45142 9.59759 3.58148 9.47608 5.84159 9.23305L8.62303 8.93397C9.24844 8.86672 9.56115 8.8331 9.83545 8.7161C10.0783 8.61253 10.2982 8.46191 10.4826 8.27292C10.6908 8.05943 10.8351 7.78001 11.1239 7.22118L12.6577 4.25251Z" fill="#FFE600"/>
<path fill-rule="evenodd" clip-rule="evenodd" d="M14.3356 0.616261C15.074 0.270816 15.9277 0.270817 16.6661 0.616263C17.1755 0.854572 17.5403 1.30309 17.8649 1.81168C18.1903 2.32151 18.5479 3.01364 18.9923 3.87387L19.0101 3.90832L20.544 6.87698C20.8542 7.47752 20.9442 7.63479 21.0559 7.74931C21.1711 7.86743 21.3085 7.96157 21.4603 8.0263C21.6074 8.08906 21.7866 8.11608 22.4587 8.18834L25.2401 8.48742L25.2792 8.49163C26.3761 8.60956 27.251 8.70363 27.912 8.83538C28.5621 8.96498 29.1687 9.1578 29.5894 9.58907C30.1895 10.2043 30.4675 11.0648 30.3408 11.9148C30.2519 12.5107 29.8728 13.022 29.4213 13.5075C28.9623 14.001 28.3078 14.5891 27.4873 15.3265L27.458 15.3528L25.3572 17.2406C24.7332 17.8014 24.573 17.9605 24.4836 18.1309C24.3914 18.3069 24.3424 18.5024 24.3408 18.7011C24.3393 18.8935 24.4055 19.1093 24.6915 19.8981L25.5786 22.3449L25.5921 22.3821C26.0004 23.5082 26.3243 24.4016 26.5098 25.0991C26.6905 25.7789 26.7929 26.4472 26.5702 27.0335C26.2559 27.8611 25.5623 28.4869 24.7067 28.7146C24.1007 28.8759 23.4465 28.7054 22.7888 28.4559C22.1139 28.1998 21.2585 27.7859 20.1803 27.2642L20.1447 27.247L16.568 25.5163C16.0185 25.2504 15.8687 25.185 15.725 25.1588C15.5768 25.1318 15.4249 25.1318 15.2768 25.1588C15.133 25.185 14.9833 25.2504 14.4337 25.5163L10.857 27.247L10.8215 27.2641C9.74321 27.7859 8.88778 28.1998 8.2129 28.4559C7.55523 28.7054 6.90104 28.8759 6.29501 28.7146C5.43942 28.4869 4.74581 27.8612 4.43147 27.0335C4.20881 26.4472 4.31125 25.7789 4.49195 25.0991C4.67738 24.4016 5.00129 23.5082 5.4096 22.3821L5.42307 22.3449L6.31024 19.8981C6.59621 19.1093 6.66245 18.8935 6.66088 18.7011C6.65926 18.5024 6.6103 18.3069 6.51806 18.1309C6.42874 17.9605 6.26855 17.8014 5.64453 17.2406L3.54374 15.3528L3.51438 15.3264C2.69385 14.5891 2.0394 14.001 1.58043 13.5075C1.12895 13.022 0.749807 12.5107 0.660957 11.9148C0.534205 11.0648 0.812171 10.2043 1.41229 9.58907C1.83297 9.1578 2.43956 8.96498 3.08975 8.83538C3.75073 8.70363 4.62556 8.60957 5.72239 8.49164L5.76161 8.48742L8.54305 8.18834C9.21513 8.11608 9.39427 8.08906 9.54142 8.0263C9.69319 7.96157 9.83064 7.86743 9.94585 7.74931C10.0576 7.63479 10.1475 7.47752 10.4578 6.87698L11.9916 3.90831L12.0094 3.87378C12.4538 3.01359 12.8114 2.32149 13.1368 1.81168C13.4614 1.30308 13.8262 0.85457 14.3356 0.616261ZM16.0305 1.97494C15.6949 1.81792 15.3069 1.81792 14.9712 1.97494C14.8638 2.02518 14.6904 2.16568 14.4012 2.6187C14.1172 3.0637 13.7906 3.6941 13.3242 4.59684L11.7904 7.56552C11.7758 7.59377 11.7614 7.62168 11.7472 7.64925C11.5012 8.12626 11.3078 8.50129 11.0197 8.79666C10.7662 9.05652 10.4638 9.26363 10.1299 9.40605C9.75036 9.56792 9.33078 9.61273 8.79709 9.66972C8.76625 9.67301 8.73503 9.67634 8.70341 9.67974L5.92197 9.97882C4.77708 10.1019 3.96979 10.1895 3.38297 10.3064C2.77749 10.4271 2.56784 10.5526 2.48607 10.6364C2.21329 10.9161 2.08694 11.3072 2.14455 11.6936C2.16183 11.8094 2.25844 12.0339 2.67887 12.486C3.08635 12.9242 3.68984 13.4674 4.54633 14.2371L6.64713 16.1249C6.67684 16.1516 6.7062 16.1779 6.73519 16.204C7.22846 16.6464 7.61549 16.9936 7.84663 17.4346C8.04956 17.8218 8.15727 18.2517 8.16083 18.6889C8.16488 19.1867 7.98724 19.6753 7.76082 20.2981C7.74751 20.3347 7.73403 20.3718 7.72041 20.4093L6.83324 22.8562C6.40849 24.0277 6.10796 24.8587 5.94161 25.4845C5.7685 26.1357 5.79286 26.3932 5.83375 26.5009C5.97663 26.8771 6.29191 27.1615 6.68081 27.2651C6.7921 27.2947 7.05076 27.2925 7.68079 27.0534C8.28621 26.8237 9.08195 26.4395 10.2036 25.8967L13.7804 24.166C13.8061 24.1536 13.8315 24.1413 13.8566 24.1291C14.2937 23.9173 14.6375 23.7506 15.0078 23.6831C15.3338 23.6237 15.6679 23.6237 15.9939 23.6831C16.3642 23.7506 16.708 23.9173 17.1451 24.1291C17.1702 24.1413 17.1956 24.1536 17.2213 24.166L20.7981 25.8967C21.9198 26.4395 22.7155 26.8237 23.3209 27.0534C23.9509 27.2925 24.2096 27.2947 24.3209 27.2651C24.7098 27.1615 25.0251 26.8771 25.168 26.5009C25.2089 26.3932 25.2332 26.1357 25.0601 25.4845C24.8938 24.8587 24.5932 24.0277 24.1685 22.8562L23.2813 20.4093C23.2677 20.3718 23.2542 20.3347 23.2409 20.2981C23.0145 19.6753 22.8368 19.1867 22.8409 18.6889C22.8444 18.2517 22.9521 17.8218 23.1551 17.4346C23.3862 16.9936 23.7732 16.6464 24.2665 16.204C24.2955 16.178 24.3249 16.1516 24.3546 16.1249L26.4554 14.2371C27.3119 13.4674 27.9154 12.9242 28.3228 12.486C28.7433 12.0339 28.8399 11.8094 28.8572 11.6936C28.9148 11.3072 28.7884 10.9161 28.5156 10.6364C28.4339 10.5526 28.2242 10.4271 27.6187 10.3064C27.0319 10.1895 26.2246 10.1019 25.0797 9.97882L22.2983 9.67975C22.2667 9.67635 22.2355 9.67301 22.2046 9.66972C21.6709 9.61273 21.2513 9.56792 20.8718 9.40605C20.5379 9.26363 20.2355 9.05652 19.9821 8.79666C19.694 8.50128 19.5005 8.12626 19.2545 7.64925C19.2403 7.62168 19.2259 7.59377 19.2113 7.56551L17.6775 4.59684C17.2111 3.6941 16.8845 3.0637 16.6005 2.6187C16.3114 2.16568 16.1379 2.02518 16.0305 1.97494Z" fill="#FFE600"/>
</svg>
