<svg width="31" height="31" viewBox="0 0 31 31" fill="none" xmlns="http://www.w3.org/2000/svg">
<path opacity="0.12" d="M2.58398 15.4999C2.58398 18.7291 6.45898 25.8333 15.5007 25.8333C18.8434 25.8333 21.48 24.8622 23.4757 23.475L18.2406 18.2399C17.5394 18.9412 16.5706 19.3749 15.5005 19.3749C13.3604 19.3749 11.6255 17.64 11.6255 15.4999C11.6255 14.4299 12.0593 13.4611 12.7606 12.7598L7.52561 7.5249C4.12339 9.88992 2.58398 13.4646 2.58398 15.4999Z" fill="#E8EAED"/>
<path fill-rule="evenodd" clip-rule="evenodd" d="M3.34532 3.34467C3.63821 3.05178 4.11309 3.05178 4.40598 3.34467L8.05594 6.99463L13.2909 12.2296L18.771 17.7096L24.006 22.9447L27.656 26.5947C27.9489 26.8876 27.9489 27.3624 27.656 27.6553C27.3631 27.9482 26.8882 27.9482 26.5953 27.6553L23.3781 24.4381C21.3291 25.7227 18.7151 26.5833 15.5007 26.5833C10.7643 26.5833 7.34345 24.7157 5.11145 22.3978C2.90928 20.111 1.83398 17.3495 1.83398 15.5C1.83398 13.3465 3.29651 9.91211 6.38266 7.44267L3.34532 4.40533C3.05243 4.11244 3.05243 3.63756 3.34532 3.34467ZM7.45061 8.51062C4.57985 10.7404 3.33398 13.837 3.33398 15.5C3.33398 16.8796 4.19619 19.2849 6.19193 21.3574C8.15785 23.3989 11.1954 25.0833 15.5007 25.0833C18.2752 25.0833 20.5184 24.3841 22.2863 23.3463L18.1975 19.2575C17.4385 19.8031 16.5067 20.125 15.5005 20.125C12.9462 20.125 10.8755 18.0543 10.8755 15.5C10.8755 14.4938 11.1974 13.562 11.743 12.803L7.45061 8.51062ZM12.8247 13.8847C12.5394 14.3561 12.3755 14.9086 12.3755 15.5C12.3755 17.2259 13.7746 18.625 15.5005 18.625C16.0919 18.625 16.6444 18.4612 17.1158 18.1759L12.8247 13.8847ZM15.5007 5.91667C14.1458 5.91667 12.9199 6.08341 11.816 6.37323C11.6084 6.42773 11.4051 6.4866 11.2059 6.54956C10.811 6.67443 10.3896 6.45549 10.2647 6.06054C10.1398 5.6656 10.3588 5.24421 10.7537 5.11934C10.9765 5.04892 11.2036 4.98318 11.4351 4.9224C12.6674 4.59886 14.0216 4.41667 15.5007 4.41667C20.237 4.41667 23.6579 6.28432 25.8898 8.60216C28.092 10.889 29.1673 13.6505 29.1673 15.5C29.1673 16.8545 28.5916 18.6764 27.4544 20.4291C27.3057 20.6583 27.1469 20.8871 26.9779 21.1143C26.7307 21.4466 26.2608 21.5157 25.9285 21.2684C25.5961 21.0212 25.5271 20.5514 25.7744 20.219C25.9241 20.0177 26.0647 19.8152 26.1961 19.6126C27.2228 18.0303 27.6673 16.4888 27.6673 15.5C27.6673 14.1204 26.8051 11.7151 24.8094 9.64263C22.8434 7.60109 19.8059 5.91667 15.5007 5.91667Z" fill="#E8EAED"/>
</svg>
