<svg width="21" height="21" viewBox="0 0 21 21" fill="none" xmlns="http://www.w3.org/2000/svg">
<path fill-rule="evenodd" clip-rule="evenodd" d="M3.15533 2.09467C2.86244 1.80178 2.38756 1.80178 2.09467 2.09467C1.80178 2.38756 1.80178 2.86244 2.09467 3.15533L3.96395 5.02461C1.9648 6.72274 1 9.00894 1 10.5C1 11.8287 1.76279 13.7568 3.28788 15.3405C4.8428 16.9553 7.22196 18.25 10.5 18.25C12.6385 18.25 14.3995 17.6987 15.8001 16.8607L17.8447 18.9053C18.1376 19.1982 18.6124 19.1982 18.9053 18.9053C19.1982 18.6124 19.1982 18.1376 18.9053 17.8447L16.4328 15.3721L5.62788 4.56722L3.15533 2.09467ZM12.2967 13.3574L11.1851 12.2458C10.9729 12.3291 10.7417 12.3749 10.4999 12.3749C9.46439 12.3749 8.62492 11.5355 8.62492 10.4999C8.62492 10.2581 8.6707 10.027 8.75406 9.81472L7.64246 8.70312C7.3146 9.22341 7.12492 9.83951 7.12492 10.4999C7.12492 12.3639 8.63596 13.8749 10.4999 13.8749C11.1603 13.8749 11.7764 13.6852 12.2967 13.3574ZM8.06537 4.55136C8.79247 4.36046 9.60226 4.25 10.5 4.25C13.347 4.25 15.3428 5.36151 16.6316 6.69992C17.9503 8.0693 18.5 9.64121 18.5 10.5C18.5 11.1108 18.22 12.1099 17.5424 13.1543C17.4561 13.2872 17.3638 13.4202 17.2655 13.5524C17.0183 13.8847 17.0873 14.3546 17.4196 14.6018C17.752 14.849 18.2218 14.78 18.469 14.4476C18.5866 14.2895 18.6971 14.1303 18.8007 13.9707C19.5889 12.756 20 11.4765 20 10.5C20 9.17129 19.2372 7.2432 17.7121 5.65946C16.1572 4.04474 13.778 2.75 10.5 2.75C9.47802 2.75 8.54 2.87591 7.68447 3.10052C7.5238 3.14271 7.36611 3.18835 7.21141 3.23726C6.81647 3.36213 6.59752 3.78352 6.72239 4.17846C6.84725 4.57341 7.26864 4.79235 7.66359 4.66748C7.7947 4.62603 7.92861 4.58726 8.06537 4.55136Z" fill="white" fill-opacity="0.6"/>
</svg>
