<svg width="21" height="21" viewBox="0 0 21 21" fill="none" xmlns="http://www.w3.org/2000/svg">
<path fill-rule="evenodd" clip-rule="evenodd" d="M10.5 2.75C7.22196 2.75 4.8428 4.04474 3.28788 5.65946C1.76279 7.2432 1 9.17129 1 10.5C1 11.8287 1.76279 13.7568 3.28788 15.3405C4.8428 16.9553 7.22196 18.25 10.5 18.25C13.778 18.25 16.1572 16.9553 17.7121 15.3405C19.2372 13.7568 20 11.8287 20 10.5C20 9.17129 19.2372 7.2432 17.7121 5.65946C16.1572 4.04474 13.778 2.75 10.5 2.75ZM10.4999 8.625C9.46439 8.625 8.62492 9.46447 8.62492 10.5C8.62492 11.5355 9.46439 12.375 10.4999 12.375C11.5355 12.375 12.3749 11.5355 12.3749 10.5C12.3749 9.46447 11.5355 8.625 10.4999 8.625ZM7.12492 10.5C7.12492 8.63604 8.63596 7.125 10.4999 7.125C12.3639 7.125 13.8749 8.63604 13.8749 10.5C13.8749 12.364 12.3639 13.875 10.4999 13.875C8.63596 13.875 7.12492 12.364 7.12492 10.5Z" fill="white" fill-opacity="0.6"/>
</svg>
