<svg width="31" height="31" viewBox="0 0 31 31" fill="none" xmlns="http://www.w3.org/2000/svg">
<path opacity="0.12" fill-rule="evenodd" clip-rule="evenodd" d="M15.5007 25.8334C24.5423 25.8334 28.4173 18.7292 28.4173 15.5001C28.4173 12.2709 24.5423 5.16675 15.5007 5.16675C6.45898 5.16675 2.58398 12.2709 2.58398 15.5001C2.58398 18.7292 6.45898 25.8334 15.5007 25.8334ZM15.5005 19.3751C17.6406 19.3751 19.3755 17.6402 19.3755 15.5001C19.3755 13.36 17.6406 11.6251 15.5005 11.6251C13.3604 11.6251 11.6255 13.36 11.6255 15.5001C11.6255 17.6402 13.3604 19.3751 15.5005 19.3751Z" fill="#E8EAED"/>
<path fill-rule="evenodd" clip-rule="evenodd" d="M3.33398 15.5001C3.33398 14.1205 4.19619 11.7152 6.19193 9.64271C8.15785 7.60117 11.1954 5.91675 15.5007 5.91675C19.8059 5.91675 22.8434 7.60117 24.8094 9.64271C26.8051 11.7152 27.6673 14.1205 27.6673 15.5001C27.6673 16.8797 26.8051 19.285 24.8094 21.3575C22.8434 23.399 19.8059 25.0834 15.5007 25.0834C11.1954 25.0834 8.15785 23.399 6.19193 21.3575C4.19619 19.285 3.33398 16.8797 3.33398 15.5001ZM15.5007 4.41675C10.7643 4.41675 7.34345 6.2844 5.11145 8.60225C2.90928 10.8891 1.83398 13.6505 1.83398 15.5001C1.83398 17.3496 2.90928 20.111 5.11145 22.3979C7.34345 24.7158 10.7643 26.5834 15.5007 26.5834C20.237 26.5834 23.6579 24.7158 25.8898 22.3979C28.092 20.111 29.1673 17.3496 29.1673 15.5001C29.1673 13.6505 28.092 10.8891 25.8898 8.60225C23.6579 6.2844 20.237 4.41675 15.5007 4.41675ZM12.3755 15.5001C12.3755 13.7742 13.7746 12.3751 15.5005 12.3751C17.2264 12.3751 18.6255 13.7742 18.6255 15.5001C18.6255 17.226 17.2264 18.6251 15.5005 18.6251C13.7746 18.6251 12.3755 17.226 12.3755 15.5001ZM15.5005 10.8751C12.9462 10.8751 10.8755 12.9458 10.8755 15.5001C10.8755 18.0544 12.9462 20.1251 15.5005 20.1251C18.0548 20.1251 20.1255 18.0544 20.1255 15.5001C20.1255 12.9458 18.0548 10.8751 15.5005 10.8751Z" fill="#E8EAED"/>
</svg>
