<svg width="30" height="30" viewBox="0 0 30 30" fill="none" xmlns="http://www.w3.org/2000/svg">
<path d="M14.2453 0C12.5397 0 11.157 1.41384 11.157 3.15789V3.31582C7.633 4.0473 4.98058 7.23322 4.98058 11.0526V15.7895C4.98058 15.7895 4.76283 18.7387 4.20852 20.5263C3.85766 21.6578 3.14658 23.0508 2.60434 24.0325C2.30544 24.5736 2.68398 25.2632 3.29172 25.2632H26.743C27.3507 25.2632 27.7292 24.5736 27.4303 24.0325C26.8881 23.0508 26.177 21.6578 25.8262 20.5263C25.2718 18.7387 25.0541 15.7895 25.0541 15.7895V13.9941C24.5075 14.1355 23.9351 14.2105 23.3456 14.2105C19.508 14.2105 16.3971 11.0294 16.3971 7.10526C16.3971 5.04686 17.2531 3.1929 18.6209 1.89527C18.1445 0.779679 17.056 0 15.7894 0H14.2453Z" fill="#FFC700"/>
<path d="M11.157 26.8421H18.8776C18.8776 28.5862 17.495 30 15.7894 30H14.2453C12.5397 30 11.157 28.5862 11.157 26.8421Z" fill="#FFC700"/>
<path d="M23.3456 12.6316C26.3304 12.6316 28.75 10.1574 28.75 7.10526C28.75 4.05316 26.3304 1.57895 23.3456 1.57895C20.3608 1.57895 17.9412 4.05316 17.9412 7.10526C17.9412 10.1574 20.3608 12.6316 23.3456 12.6316Z" fill="#FFC700"/>
</svg>
