<svg width="30" height="30" viewBox="0 0 30 30" fill="none" xmlns="http://www.w3.org/2000/svg">
<path opacity="0.12" d="M27.5 21.25V13.845C27.5 12.433 27.5 11.727 27.3204 11.0752C27.1613 10.4977 26.8998 9.95353 26.5483 9.46857C26.1514 8.92115 25.6001 8.48011 24.4976 7.59805L19.9976 3.99805C18.214 2.57118 17.3222 1.85774 16.3332 1.58413C15.4608 1.34279 14.5392 1.34279 13.6668 1.58413C12.6778 1.85774 11.786 2.57118 10.0024 3.99805L5.50244 7.59805L5.50243 7.59806C4.39985 8.48012 3.84856 8.92115 3.45174 9.46857C3.1002 9.95353 2.83865 10.4977 2.67957 11.0752C2.5 11.727 2.5 12.433 2.5 13.845V21.25C2.5 22.4116 2.5 22.9925 2.59607 23.4755C2.99061 25.4589 4.5411 27.0094 6.52455 27.4039C7.00754 27.5 7.58836 27.5 8.75 27.5C9.21466 27.5 9.44698 27.5 9.64018 27.4616C10.4336 27.3038 11.0538 26.6836 11.2116 25.8902C11.25 25.697 11.25 25.4647 11.25 25V19.9999C11.25 17.9289 12.9289 16.2499 15 16.2499C17.0711 16.2499 18.75 17.9289 18.75 19.9999V25C18.75 25.4647 18.75 25.697 18.7884 25.8902C18.9462 26.6836 19.5664 27.3038 20.3598 27.4616C20.553 27.5 20.7853 27.5 21.25 27.5C22.4116 27.5 22.9925 27.5 23.4755 27.4039C25.4589 27.0094 27.0094 25.4589 27.4039 23.4755C27.5 22.9925 27.5 22.4116 27.5 21.25Z" fill="#E8EAED"/>
<path fill-rule="evenodd" clip-rule="evenodd" d="M16.1332 2.30693C15.3917 2.10179 14.6084 2.10179 13.8668 2.30693C13.4834 2.413 13.0909 2.6105 12.5571 2.97692C12.0154 3.34869 11.3713 3.86342 10.471 4.58365L5.97098 8.18365C4.83583 9.09177 4.38235 9.46265 4.059 9.9087C3.76019 10.3209 3.53787 10.7835 3.40265 11.2743C3.25633 11.8055 3.25002 12.3913 3.25002 13.845V21.25C3.25002 22.4475 3.25365 22.9368 3.33168 23.3291C3.66704 25.015 4.98495 26.3329 6.67089 26.6683C7.06317 26.7463 7.55243 26.75 8.75002 26.75C9.25062 26.75 9.3914 26.7463 9.49388 26.7259C9.98975 26.6273 10.3774 26.2397 10.476 25.7438C10.4964 25.6413 10.5 25.5006 10.5 25V19.9999C10.5 17.5146 12.5147 15.4999 15 15.4999C17.4853 15.4999 19.5 17.5146 19.5 19.9999V24.9999C19.5 25.5006 19.5037 25.6413 19.524 25.7438C19.6227 26.2397 20.0103 26.6273 20.5062 26.7259C20.6086 26.7463 20.7494 26.75 21.25 26.75C22.4476 26.75 22.9369 26.7463 23.3292 26.6683C25.0151 26.3329 26.333 25.015 26.6684 23.3291C26.7464 22.9368 26.75 22.4475 26.75 21.25V13.845C26.75 12.3913 26.7437 11.8055 26.5974 11.2743C26.4622 10.7835 26.2398 10.3209 25.941 9.9087C25.6177 9.46265 25.1642 9.09177 24.0291 8.18365L19.5291 4.58365C18.6288 3.86342 17.9846 3.34869 17.443 2.97692C16.9092 2.6105 16.5166 2.413 16.1332 2.30693ZM13.4669 0.861235C14.4701 0.58369 15.5299 0.58369 16.5332 0.861235C17.1388 1.02877 17.6866 1.32479 18.2918 1.74022C18.8841 2.14673 19.5708 2.69609 20.4432 3.39401L20.4661 3.41235L24.9661 7.01235C24.9964 7.03659 25.0264 7.06056 25.056 7.08426C26.0727 7.89743 26.6985 8.39793 27.1555 9.02834C27.5598 9.58604 27.8606 10.2118 28.0435 10.8759C28.2503 11.6266 28.2502 12.4279 28.25 13.7298C28.25 13.7678 28.25 13.8061 28.25 13.845V21.25L28.25 21.351C28.2501 22.4163 28.2502 23.0654 28.1395 23.6217C27.6858 25.9027 25.9028 27.6858 23.6218 28.1395C23.0655 28.2501 22.4164 28.2501 21.3511 28.25L21.25 28.25C21.2252 28.25 21.2008 28.25 21.1767 28.25C20.784 28.2502 20.481 28.2503 20.2135 28.1971C19.1226 27.9801 18.2699 27.1273 18.0529 26.0365C17.9996 25.7689 17.9998 25.466 18 25.0732C18 25.0491 18 25.0247 18 24.9999V19.9999C18 18.343 16.6569 16.9999 15 16.9999C13.3432 16.9999 12 18.343 12 19.9999V25C12 25.0247 12 25.0491 12 25.0732C12.0002 25.466 12.0004 25.7689 11.9472 26.0365C11.7302 27.1273 10.8774 27.9801 9.78652 28.1971C9.51902 28.2503 9.21603 28.2502 8.82331 28.25C8.79922 28.25 8.7748 28.25 8.75002 28.25L8.64895 28.25C7.58368 28.2501 6.93458 28.2501 6.37825 28.1395C4.09728 27.6858 2.31422 25.9027 1.8605 23.6217C1.74984 23.0654 1.74991 22.4163 1.75001 21.351L1.75002 21.25V13.845C1.75002 13.8061 1.75001 13.7678 1.75001 13.7298C1.74984 12.4279 1.74973 11.6266 1.95653 10.8759C2.13947 10.2118 2.44025 9.58604 2.84453 9.02834C3.30151 8.39793 3.9273 7.89743 4.94404 7.08426C4.97367 7.06056 5.00364 7.03659 5.03394 7.01235L9.53394 3.41235L9.55686 3.39401C10.4293 2.69609 11.1159 2.14673 11.7082 1.74022C12.3134 1.32479 12.8613 1.02877 13.4669 0.861235Z" fill="#E8EAED"/>
</svg>
