<svg width="30" height="30" viewBox="0 0 30 30" fill="none" xmlns="http://www.w3.org/2000/svg">
<path fill-rule="evenodd" clip-rule="evenodd" d="M16.5332 0.861235C15.5299 0.58369 14.4701 0.58369 13.4669 0.861235C12.8613 1.02877 12.3134 1.32479 11.7082 1.74022C11.116 2.14672 10.4293 2.69606 9.55694 3.39395L9.55686 3.39401L9.53394 3.41235L5.03394 7.01235L4.94404 7.08426L4.94403 7.08426C3.9273 7.89743 3.3015 8.39793 2.84453 9.02834C2.44025 9.58604 2.13947 10.2118 1.95653 10.8759C1.74973 11.6266 1.74984 12.4279 1.75001 13.7298L1.75002 13.845V21.25L1.75001 21.351C1.74991 22.4163 1.74984 23.0654 1.8605 23.6217C2.31422 25.9027 4.09728 27.6858 6.37825 28.1395C6.93458 28.2501 7.58368 28.2501 8.64895 28.25L8.75002 28.25L8.82331 28.25C9.21603 28.2502 9.51902 28.2503 9.78652 28.1971C10.8774 27.9801 11.7302 27.1273 11.9472 26.0365C12.0004 25.7689 12.0002 25.466 12 25.0732L12 25V19.9999C12 18.343 13.3432 16.9999 15 16.9999C16.6569 16.9999 18 18.343 18 19.9999V24.9999L18 25.0732C17.9998 25.466 17.9997 25.7689 18.0529 26.0365C18.2699 27.1273 19.1226 27.9801 20.2135 28.1971C20.481 28.2503 20.784 28.2502 21.1767 28.25L21.25 28.25L21.3511 28.25C22.4164 28.2501 23.0655 28.2501 23.6218 28.1395C25.9028 27.6858 27.6858 25.9027 28.1395 23.6217C28.2502 23.0654 28.2501 22.4163 28.25 21.351L28.25 21.25V13.845L28.25 13.7298C28.2502 12.4279 28.2503 11.6266 28.0435 10.8759C27.8606 10.2118 27.5598 9.58604 27.1555 9.02834C26.6985 8.39793 26.0727 7.89743 25.056 7.08426L24.9661 7.01235L20.4661 3.41235L20.4432 3.39401L20.4431 3.39394C19.5707 2.69606 18.8841 2.14672 18.2918 1.74022C17.6866 1.32479 17.1388 1.02877 16.5332 0.861235Z" fill="white"/>
</svg>
