<svg width="30" height="30" viewBox="0 0 30 30" fill="none" xmlns="http://www.w3.org/2000/svg">
<path opacity="0.12" fill-rule="evenodd" clip-rule="evenodd" d="M10 12.5C12.7614 12.5 15 10.2614 15 7.5C15 4.73858 12.7614 2.5 10 2.5C7.23858 2.5 5 4.73858 5 7.5C5 10.2614 7.23858 12.5 10 12.5ZM7.25 17.5C3.93629 17.5 1.25 20.1863 1.25 23.5C1.25 25.7091 3.04086 27.5 5.25 27.5H14.75C16.9591 27.5 18.75 25.7091 18.75 23.5C18.75 20.1863 16.0637 17.5 12.75 17.5H7.25Z" fill="#E8EAED"/>
<path fill-rule="evenodd" clip-rule="evenodd" d="M5.75 7.5C5.75 5.15279 7.65279 3.25 10 3.25C12.3472 3.25 14.25 5.15279 14.25 7.5C14.25 9.84721 12.3472 11.75 10 11.75C7.65279 11.75 5.75 9.84721 5.75 7.5ZM10 1.75C6.82436 1.75 4.25 4.32436 4.25 7.5C4.25 10.6756 6.82436 13.25 10 13.25C13.1756 13.25 15.75 10.6756 15.75 7.5C15.75 4.32436 13.1756 1.75 10 1.75ZM18.75 1.75C18.3358 1.75 18 2.08579 18 2.5C18 2.91421 18.3358 3.25 18.75 3.25C21.0972 3.25 23 5.15279 23 7.5C23 9.84721 21.0972 11.75 18.75 11.75C18.3358 11.75 18 12.0858 18 12.5C18 12.9142 18.3358 13.25 18.75 13.25C21.9256 13.25 24.5 10.6756 24.5 7.5C24.5 4.32436 21.9256 1.75 18.75 1.75ZM0.5 23.5C0.5 19.7721 3.52208 16.75 7.25 16.75H12.75C16.4779 16.75 19.5 19.7721 19.5 23.5C19.5 26.1234 17.3734 28.25 14.75 28.25H5.25C2.62665 28.25 0.5 26.1234 0.5 23.5ZM7.25 18.25C4.35051 18.25 2 20.6005 2 23.5C2 25.2949 3.45507 26.75 5.25 26.75H14.75C16.5449 26.75 18 25.2949 18 23.5C18 20.6005 15.6495 18.25 12.75 18.25H7.25ZM21.25 16.75C20.8358 16.75 20.5 17.0858 20.5 17.5C20.5 17.9142 20.8358 18.25 21.25 18.25H22.75C25.6495 18.25 28 20.6005 28 23.5C28 25.2949 26.5449 26.75 24.75 26.75H21.25C20.8358 26.75 20.5 27.0858 20.5 27.5C20.5 27.9142 20.8358 28.25 21.25 28.25H24.75C27.3734 28.25 29.5 26.1234 29.5 23.5C29.5 19.7721 26.4779 16.75 22.75 16.75H21.25Z" fill="#E8EAED"/>
</svg>
