<svg width="30" height="30" viewBox="0 0 30 30" fill="none" xmlns="http://www.w3.org/2000/svg">
<path fill-rule="evenodd" clip-rule="evenodd" d="M18.75 1.75C18.3358 1.75 18 2.08579 18 2.5C18 2.91421 18.3358 3.25 18.75 3.25C21.0972 3.25 23 5.15279 23 7.5C23 9.84721 21.0972 11.75 18.75 11.75C18.3358 11.75 18 12.0858 18 12.5C18 12.9142 18.3358 13.25 18.75 13.25C21.9256 13.25 24.5 10.6756 24.5 7.5C24.5 4.32436 21.9256 1.75 18.75 1.75ZM21.25 16.75C20.8358 16.75 20.5 17.0858 20.5 17.5C20.5 17.9142 20.8358 18.25 21.25 18.25H22.75C25.6495 18.25 28 20.6005 28 23.5C28 25.2949 26.5449 26.75 24.75 26.75H21.25C20.8358 26.75 20.5 27.0858 20.5 27.5C20.5 27.9142 20.8358 28.25 21.25 28.25H24.75C27.3734 28.25 29.5 26.1234 29.5 23.5C29.5 19.7721 26.4779 16.75 22.75 16.75H21.25ZM4.25 7.5C4.25 4.32436 6.82436 1.75 10 1.75C13.1756 1.75 15.75 4.32436 15.75 7.5C15.75 10.6756 13.1756 13.25 10 13.25C6.82436 13.25 4.25 10.6756 4.25 7.5ZM7.25 16.75C3.52208 16.75 0.5 19.7721 0.5 23.5C0.5 26.1234 2.62665 28.25 5.25 28.25H14.75C17.3734 28.25 19.5 26.1234 19.5 23.5C19.5 19.7721 16.4779 16.75 12.75 16.75H7.25Z" fill="white"/>
</svg>
