<svg width="31" height="31" viewBox="0 0 31 31" fill="none" xmlns="http://www.w3.org/2000/svg">
<path opacity="0.12" d="M28.1742 6.76984C28.6758 4.97832 28.9266 4.08256 28.6938 3.46788C28.4909 2.93196 28.0678 2.50885 27.5318 2.30587C26.9172 2.07308 26.0214 2.32389 24.2299 2.82552L6.71231 7.73044C3.88264 8.52275 2.4678 8.9189 2.05783 9.59155C1.70325 10.1733 1.66922 10.8956 1.96753 11.5081C2.31243 12.2163 3.68375 12.7438 6.42639 13.7986L12.8807 16.281C13.3695 16.4691 13.6139 16.5631 13.8195 16.7093C14.0017 16.8388 14.1609 16.998 14.2905 17.1802C14.4367 17.3858 14.5307 17.6302 14.7187 18.1191L17.2009 24.5732C18.2557 27.3159 18.7832 28.6872 19.4914 29.0321C20.1039 29.3304 20.8262 29.2964 21.4079 28.9419C22.0806 28.5319 22.4768 27.117 23.2691 24.2873L28.1742 6.76984Z" fill="#21D589"/>
<path fill-rule="evenodd" clip-rule="evenodd" d="M24.4321 3.54775C25.3421 3.29294 25.9748 3.11659 26.4576 3.02797C26.9454 2.93843 27.1554 2.96531 27.2662 3.00727C27.6012 3.13412 27.8656 3.39857 27.9925 3.73352C28.0344 3.84431 28.0613 4.0543 27.9718 4.54216C27.8831 5.02498 27.7068 5.65758 27.452 6.56762L22.5469 24.0851C22.1469 25.5137 21.8593 26.5383 21.5907 27.2606C21.306 28.026 21.1102 28.245 21.0176 28.3014C20.654 28.523 20.2026 28.5443 19.8198 28.3579C19.7223 28.3104 19.5068 28.1108 19.1514 27.3755C18.8161 26.6817 18.4335 25.6886 17.9009 24.304L15.4187 17.8498L15.3908 17.7773C15.2761 17.4786 15.1789 17.2253 15.059 17.0014L18.6135 13.4469C18.9064 13.1541 18.9064 12.6792 18.6135 12.3863C18.3206 12.0934 17.8457 12.0934 17.5528 12.3863L13.9984 15.9407C13.7744 15.8208 13.5212 15.7236 13.2226 15.609L13.2225 15.6089L13.1499 15.581L6.69562 13.0986C5.31098 12.5661 4.31799 12.1835 3.62419 11.8481C2.88888 11.4927 2.6893 11.2772 2.64181 11.1797C2.45537 10.7969 2.47664 10.3455 2.69825 9.98189C2.7547 9.88929 2.97365 9.69352 3.73912 9.40883C4.46138 9.14021 5.48595 8.85267 6.91453 8.45267L24.4321 3.54775ZM27.7975 1.6045C27.2936 1.41366 26.7484 1.44955 26.1868 1.55262C25.6281 1.65516 24.929 1.85092 24.0645 2.09298L24.0277 2.1033L6.51009 7.00822L6.47271 7.01869L6.47267 7.0187C5.08944 7.406 4.00422 7.70986 3.21624 8.00292C2.46438 8.28254 1.77094 8.62118 1.41741 9.20123C0.929856 10.0012 0.883064 10.9943 1.29324 11.8365C1.59066 12.4472 2.2492 12.8496 2.97143 13.1987C3.72838 13.5645 4.78024 13.9691 6.12096 14.4847L6.15715 14.4986L12.6114 16.9811C13.1361 17.1829 13.2744 17.2419 13.3849 17.3205C13.4988 17.4015 13.5983 17.501 13.6792 17.6148C13.7578 17.7253 13.8169 17.8636 14.0187 18.3883L16.5009 24.8424L16.5148 24.8786C17.0305 26.2194 17.435 27.2712 17.8009 28.0282C18.1499 28.7504 18.5523 29.409 19.163 29.7064C20.0052 30.1166 20.9983 30.0698 21.7983 29.5823C22.3783 29.2288 22.717 28.5353 22.9966 27.7835C23.2897 26.9955 23.5935 25.9103 23.9809 24.527L23.9809 24.5269L23.9913 24.4896L28.8964 6.97208L28.9067 6.93527C29.1488 6.07078 29.3446 5.37166 29.4471 4.81296C29.5502 4.25138 29.5861 3.70615 29.3952 3.20226C29.1162 2.46537 28.5344 1.88359 27.7975 1.6045Z" fill="#21D589"/>
</svg>
