<svg width="35" height="35" viewBox="0 0 35 35" fill="none" xmlns="http://www.w3.org/2000/svg">
<path fill-rule="evenodd" clip-rule="evenodd" d="M17.5 35C27.165 35 35 27.165 35 17.5C35 7.83502 27.165 0 17.5 0C7.83502 0 0 7.83502 0 17.5C0 27.165 7.83502 35 17.5 35ZM22.9637 17.6045C23.4607 18.1015 24.2666 18.1015 24.7636 17.6045C25.2606 17.1075 25.2606 16.3016 24.7636 15.8046L18.4 9.44096C17.9029 8.94392 17.0971 8.94392 16.6 9.44096L10.2364 15.8046C9.73938 16.3016 9.73938 17.1075 10.2364 17.6045C10.7334 18.1015 11.5393 18.1015 12.0363 17.6045L16.2273 13.4135V25.4545C16.2273 26.1575 16.7971 26.7273 17.5 26.7273C18.2029 26.7273 18.7727 26.1575 18.7727 25.4545V13.4135L22.9637 17.6045Z" fill="#3B82F6"/>
<path d="M24.7636 17.6045C24.2666 18.1015 23.4607 18.1015 22.9637 17.6045L18.7727 13.4135V25.4545C18.7727 26.1575 18.2029 26.7273 17.5 26.7273C16.7971 26.7273 16.2273 26.1575 16.2273 25.4545V13.4135L12.0363 17.6045C11.5393 18.1015 10.7334 18.1015 10.2364 17.6045C9.73938 17.1075 9.73938 16.3016 10.2364 15.8046L16.6 9.44096C17.0971 8.94392 17.9029 8.94392 18.4 9.44096L24.7636 15.8046C25.2606 16.3016 25.2606 17.1075 24.7636 17.6045Z" fill="white" fill-opacity="0.05"/>
</svg>
