<svg width="35" height="35" viewBox="0 0 35 35" fill="none" xmlns="http://www.w3.org/2000/svg">
<path fill-rule="evenodd" clip-rule="evenodd" d="M17.4743 2.16675L17.4993 2.16675L17.5244 2.16675C18.3569 2.16674 19.0167 2.16674 19.5522 2.20026C20.0991 2.23449 20.5663 2.30574 21.0059 2.47119C22.2861 2.95303 23.2964 3.96336 23.7782 5.24356C23.9437 5.68316 24.0149 6.15036 24.0492 6.69721C24.0726 7.0717 24.0796 7.50697 24.0818 8.01958C24.5079 8.03091 24.897 8.04882 25.2544 8.07715C26.2429 8.15549 27.0499 8.31677 27.7862 8.67259C29.0114 9.2647 30.029 10.2133 30.7056 11.3939C31.1122 12.1034 31.3297 12.8972 31.4772 13.8777C31.6223 14.8425 31.7069 16.0465 31.8156 17.5916L31.8179 17.6241L32.1085 21.7575L32.111 21.7927C32.2344 23.5484 32.3304 24.9132 32.3155 26.0093C32.3005 27.1209 32.1723 28.0277 31.8035 28.8487C31.193 30.2082 30.1497 31.3275 28.8364 32.0318C28.0432 32.4573 27.1477 32.6487 26.0399 32.7417C24.9475 32.8334 23.5793 32.8334 21.8192 32.8334H21.8192H21.784H13.2147H13.1795H13.1794C11.4194 32.8334 10.0512 32.8334 8.95881 32.7417C7.851 32.6487 6.95546 32.4573 6.16229 32.0318C4.84897 31.3275 3.80568 30.2082 3.19514 28.8487C2.82641 28.0277 2.69823 27.1209 2.68316 26.0093C2.6683 24.9132 2.76428 23.5483 2.88773 21.7926L2.8902 21.7575L3.18082 17.6241L3.18311 17.5916C3.29175 16.0465 3.3764 14.8425 3.5215 13.8778C3.66898 12.8972 3.88647 12.1034 4.29306 11.3939C4.96964 10.2133 5.98727 9.2647 7.21246 8.67259C7.94873 8.31677 8.75577 8.15549 9.74428 8.07715C10.1017 8.04882 10.4908 8.03091 10.9169 8.01958C10.919 7.50697 10.9261 7.0717 10.9495 6.69721C10.9837 6.15036 11.055 5.68316 11.2205 5.24356C11.7023 3.96336 12.7126 2.95303 13.9928 2.47119C14.4324 2.30574 14.8996 2.23449 15.4465 2.20026C15.982 2.16674 16.6418 2.16674 17.4743 2.16675ZM22.5816 8.00114C22.2484 8.00008 21.897 8.00008 21.526 8.00008H21.4934H13.5053H13.4727C13.1017 8.00008 12.7503 8.00008 12.417 8.00114C12.4192 7.51158 12.4259 7.12097 12.4466 6.79092C12.4765 6.31376 12.5334 6.01351 12.6243 5.77194C12.954 4.89601 13.6453 4.20473 14.5212 3.87505C14.7628 3.78413 15.063 3.7272 15.5402 3.69733C16.0233 3.66709 16.6362 3.66675 17.4993 3.66675C18.3624 3.66675 18.9754 3.66709 19.4585 3.69733C19.9357 3.7272 20.2359 3.78413 20.4775 3.87505C21.3534 4.20473 22.0447 4.89601 22.3744 5.77194C22.4653 6.01351 22.5222 6.31376 22.5521 6.79092C22.5728 7.12097 22.5795 7.51158 22.5816 8.00114Z" fill="#FF2D55"/>
</svg>
