<svg width="31" height="31" viewBox="0 0 31 31" fill="none" xmlns="http://www.w3.org/2000/svg">
<path opacity="0.12" d="M3.40945 16.6767C3.63061 13.5314 3.74118 11.9587 4.42426 10.7668C5.02566 9.71729 5.93022 8.8741 7.01928 8.34779C8.25623 7.75 9.83276 7.75 12.9858 7.75H18.0155C21.1685 7.75 22.7451 7.75 23.982 8.34779C25.0711 8.8741 25.9756 9.71729 26.577 10.7668C27.2601 11.9587 27.3707 13.5314 27.5918 16.6767L27.695 18.1433C27.946 21.7142 28.0716 23.4996 27.454 24.8747C26.9113 26.0832 25.9839 27.078 24.8165 27.7042C23.4881 28.4167 21.6983 28.4167 18.1186 28.4167H12.8827C9.30304 28.4167 7.51321 28.4167 6.18476 27.7042C5.01736 27.078 4.08999 26.0832 3.54729 24.8747C2.92972 23.4996 3.05525 21.7142 3.30633 18.1433L3.40945 16.6767Z" fill="#FFD600"/>
<path fill-rule="evenodd" clip-rule="evenodd" d="M15.5006 1.83328L15.3895 1.83326C14.4115 1.83309 13.7888 1.83299 13.2554 1.95736C11.494 2.36805 10.1187 3.74333 9.70806 5.50466C9.61053 5.92294 9.58955 6.39613 9.58511 7.05247C9.46149 7.05963 9.34143 7.06776 9.22475 7.07701C8.23624 7.15535 7.4292 7.31663 6.69293 7.67245C5.46774 8.26456 4.45011 9.21315 3.77353 10.3938C3.36694 11.1033 3.14945 11.897 3.00197 12.8776C2.85687 13.8424 2.77222 15.0463 2.66358 16.5914L2.66129 16.624L2.55817 18.0907L2.5557 18.1258C2.43225 19.8815 2.33627 21.2464 2.35113 22.3425C2.36619 23.4541 2.49438 24.3609 2.86311 25.1819C3.47365 26.5414 4.51694 27.6606 5.83026 28.365C6.62343 28.7905 7.51897 28.9819 8.62678 29.0749C9.71913 29.1666 11.0874 29.1666 12.8474 29.1666H12.8475H12.8827H18.1186H18.1538H18.1539C19.9139 29.1666 21.2822 29.1666 22.3745 29.0749C23.4823 28.9819 24.3779 28.7905 25.171 28.365C26.4843 27.6606 27.5276 26.5414 28.1382 25.1819C28.5069 24.3609 28.6351 23.4541 28.6502 22.3425C28.665 21.2464 28.569 19.8815 28.4456 18.1258L28.4431 18.0907L28.34 16.624L28.3377 16.5915L28.3377 16.5914C28.2291 15.0463 28.1444 13.8424 27.9993 12.8776C27.8518 11.897 27.6343 11.1033 27.2278 10.3938C26.5512 9.21315 25.5336 8.26456 24.3084 7.67245C23.5721 7.31663 22.765 7.15535 21.7765 7.07701C21.6599 7.06776 21.5398 7.05963 21.4162 7.05247C21.4117 6.39613 21.3908 5.92294 21.2932 5.50466C20.8825 3.74333 19.5073 2.36805 17.7459 1.95736C17.2125 1.83299 16.5898 1.83309 15.6118 1.83326L15.5006 1.83328ZM19.9173 8.50681V10.3333C19.9173 10.7475 20.2531 11.0833 20.6673 11.0833C21.0815 11.0833 21.4173 10.7475 21.4173 10.3333V8.55524C21.4994 8.56043 21.5796 8.56611 21.658 8.57232C22.5553 8.64343 23.155 8.78104 23.6557 9.02301C24.6086 9.48354 25.4001 10.2213 25.9263 11.1396C26.2028 11.6221 26.3821 12.2106 26.516 13.1007C26.6512 13.9998 26.7323 15.1447 26.8437 16.7292L26.9468 18.1959C27.0732 19.9941 27.1642 21.2964 27.1503 22.3222C27.1365 23.3398 27.0187 24.0133 26.7698 24.5674C26.295 25.6248 25.4835 26.4953 24.462 27.0432C23.9268 27.3303 23.2632 27.495 22.249 27.5802C21.2267 27.666 19.9212 27.6666 18.1186 27.6666H12.8827C11.0801 27.6666 9.77456 27.666 8.75226 27.5802C7.73813 27.495 7.07452 27.3303 6.53924 27.0432C5.51777 26.4953 4.70632 25.6248 4.23146 24.5674C3.98261 24.0133 3.86478 23.3398 3.85099 22.3222C3.83709 21.2964 3.92804 19.9941 4.05447 18.1959L4.1576 16.7292C4.26901 15.1447 4.35006 13.9998 4.48529 13.1007C4.61915 12.2106 4.79849 11.6221 5.07497 11.1396C5.60121 10.2213 6.39269 9.48354 7.34562 9.02301C7.84629 8.78104 8.446 8.64343 9.34325 8.57232C9.42164 8.56611 9.50184 8.56043 9.58398 8.55524V10.3333C9.58398 10.7475 9.91976 11.0833 10.334 11.0833C10.7482 11.0833 11.084 10.7475 11.084 10.3333V8.50681C11.6402 8.50006 12.268 8.49994 12.9858 8.49994H18.0155C18.7333 8.49994 19.3611 8.50006 19.9173 8.50681ZM19.9151 7.00665C19.9098 6.40524 19.8918 6.09987 19.8324 5.84528C19.5514 4.64016 18.6104 3.69917 17.4053 3.41818C17.0624 3.33822 16.6273 3.33328 15.5006 3.33328C14.374 3.33328 13.9389 3.33822 13.596 3.41818C12.3909 3.69917 11.4499 4.64016 11.1689 5.84528C11.1095 6.09987 11.0915 6.40524 11.0862 7.00665C11.6476 6.99994 12.2668 6.99994 12.9532 6.99994H12.9858H18.0155H18.0481C18.7345 6.99994 19.3537 6.99994 19.9151 7.00665Z" fill="#FFD600"/>
</svg>
