<svg width="35" height="35" viewBox="0 0 35 35" fill="none" xmlns="http://www.w3.org/2000/svg">
<path fill-rule="evenodd" clip-rule="evenodd" d="M9.31602 3.625L9.28301 3.625C8.19087 3.62499 7.32537 3.62499 6.62775 3.68199C5.91436 3.74027 5.31074 3.86188 4.75956 4.14272C3.86579 4.59812 3.13913 5.32478 2.68373 6.21855C2.4029 6.76972 2.28129 7.37335 2.223 8.08673C2.16601 8.78436 2.16601 9.64986 2.16602 10.742L2.16602 10.775V10.775C2.16602 11.3351 2.16602 11.6151 2.27501 11.829C2.37088 12.0172 2.52386 12.1701 2.71203 12.266C2.92594 12.375 3.20596 12.375 3.76602 12.375H31.2327C31.7927 12.375 32.0728 12.375 32.2867 12.266C32.4748 12.1701 32.6278 12.0172 32.7237 11.829C32.8327 11.6151 32.8327 11.3351 32.8327 10.775V10.775V10.742C32.8327 9.64984 32.8327 8.78435 32.7757 8.08673C32.7174 7.37335 32.5958 6.76972 32.315 6.21855C31.8596 5.32478 31.1329 4.59812 30.2391 4.14272C29.688 3.86188 29.0843 3.74027 28.3709 3.68199C27.6733 3.62499 26.8078 3.62499 25.7157 3.625L25.6827 3.625H9.31602ZM2.16602 24.225V15.475C2.16602 14.9149 2.16602 14.6349 2.27501 14.421C2.37088 14.2328 2.52386 14.0799 2.71203 13.984C2.92594 13.875 3.20596 13.875 3.76602 13.875H31.2327C31.7927 13.875 32.0728 13.875 32.2867 13.984C32.4748 14.0799 32.6278 14.2328 32.7237 14.421C32.8327 14.6349 32.8327 14.9149 32.8327 15.475V24.225V24.258C32.8327 25.3502 32.8327 26.2156 32.7757 26.9133C32.7174 27.6267 32.5958 28.2303 32.315 28.7815C31.8596 29.6752 31.1329 30.4019 30.2391 30.8573C29.688 31.1381 29.0843 31.2597 28.3709 31.318C27.6733 31.375 26.8078 31.375 25.7157 31.375H25.6827H9.31601H9.28299C8.19086 31.375 7.32537 31.375 6.62775 31.318C5.91436 31.2597 5.31074 31.1381 4.75956 30.8573C3.86579 30.4019 3.13913 29.6752 2.68373 28.7815C2.4029 28.2303 2.28129 27.6267 2.223 26.9133C2.16601 26.2156 2.16601 25.3501 2.16602 24.258L2.16602 24.225ZM8.74917 18.2083C8.33496 18.2083 7.99917 18.5441 7.99917 18.9583C7.99917 19.3725 8.33496 19.7083 8.74917 19.7083H14.5825C14.9967 19.7083 15.3325 19.3725 15.3325 18.9583C15.3325 18.5441 14.9967 18.2083 14.5825 18.2083H8.74917Z" fill="#FF9500"/>
</svg>
