<svg width="30" height="30" viewBox="0 0 30 30" fill="none" xmlns="http://www.w3.org/2000/svg">
<path fill-rule="evenodd" clip-rule="evenodd" d="M13.2691 1.24401C12.7668 1.0977 12.2332 1.0977 11.7309 1.24401C11.4064 1.33853 11.1298 1.50266 10.8573 1.70248C10.5976 1.89294 10.3021 2.14622 9.95043 2.44766L9.9504 2.44768L9.9504 2.44769L9.92937 2.46571L9.17178 3.11508C8.57304 3.62828 8.4057 3.75834 8.23539 3.82451C8.05959 3.89281 7.87061 3.92045 7.68261 3.90534C7.50049 3.89071 7.30291 3.81401 6.58229 3.49374L2.8046 1.81476C2.57261 1.71165 2.30419 1.73291 2.09132 1.87125C1.87844 2.0096 1.75 2.24624 1.75 2.50012V21.1001L1.75 21.1331C1.74999 22.2253 1.74999 23.0908 1.80699 23.7884C1.86527 24.5018 1.98688 25.1054 2.26772 25.6566C2.72312 26.5503 3.44978 27.277 4.34355 27.7324C4.89472 28.0132 5.49834 28.1348 6.21173 28.1931C6.90935 28.2501 7.77484 28.2501 8.86698 28.2501H8.9H24.7886L24.9267 28.2501L25 28.2501L25.0733 28.2501C25.466 28.2503 25.769 28.2505 26.0365 28.1973C27.1274 27.9803 27.9802 27.1275 28.1972 26.0366C28.2504 25.7691 28.2502 25.4661 28.25 25.0734L28.25 25.0001V18.2001V18.1697C28.25 17.6355 28.25 17.1897 28.2203 16.8255C28.1892 16.4456 28.1221 16.0889 27.9503 15.7516C27.6866 15.2342 27.2659 14.8135 26.7485 14.5499C26.4112 14.378 26.0546 14.3109 25.6747 14.2799C25.3104 14.2501 24.8646 14.2501 24.3304 14.2501H24.3H23.25V2.50012C23.25 2.24624 23.1216 2.0096 22.9087 1.87125C22.6958 1.73291 22.4274 1.71165 22.1954 1.81476L18.4177 3.49374C17.6971 3.81401 17.4995 3.89071 17.3174 3.90534C17.1294 3.92045 16.9404 3.89281 16.7646 3.82451C16.5943 3.75834 16.427 3.62828 15.8282 3.11508L15.0706 2.46571L15.0496 2.4477C14.6979 2.14624 14.4024 1.89295 14.1427 1.70248C13.8702 1.50266 13.5936 1.33853 13.2691 1.24401ZM25.7439 26.7261C25.6414 26.7465 25.5006 26.7501 25 26.7501C24.4994 26.7501 24.3586 26.7465 24.2561 26.7261C23.7603 26.6275 23.3727 26.2398 23.274 25.744C23.2536 25.6415 23.25 25.5007 23.25 25.0001V15.7501H24.3C24.8724 15.7501 25.2566 15.7507 25.5525 15.7749C25.8396 15.7983 25.9769 15.8402 26.0675 15.8864C26.3027 16.0062 26.4939 16.1974 26.6138 16.4326C26.6599 16.5232 26.7018 16.6605 26.7252 16.9476C26.7494 17.2435 26.75 17.6277 26.75 18.2001V25.0001C26.75 25.5007 26.7464 25.6415 26.726 25.744C26.6273 26.2398 26.2397 26.6275 25.7439 26.7261ZM8.75 10.5001C8.33579 10.5001 8 10.8359 8 11.2501C8 11.6643 8.33579 12.0001 8.75 12.0001H13.75C14.1642 12.0001 14.5 11.6643 14.5 11.2501C14.5 10.8359 14.1642 10.5001 13.75 10.5001H8.75ZM11.75 16.2501C11.75 15.8359 12.0858 15.5001 12.5 15.5001H16.25C16.6642 15.5001 17 15.8359 17 16.2501C17 16.6643 16.6642 17.0001 16.25 17.0001H12.5C12.0858 17.0001 11.75 16.6643 11.75 16.2501ZM12.5 20.5001C12.0858 20.5001 11.75 20.8359 11.75 21.2501C11.75 21.6643 12.0858 22.0001 12.5 22.0001H16.25C16.6642 22.0001 17 21.6643 17 21.2501C17 20.8359 16.6642 20.5001 16.25 20.5001H12.5ZM10 16.2501C10 16.9405 9.44036 17.5001 8.75 17.5001C8.05964 17.5001 7.5 16.9405 7.5 16.2501C7.5 15.5598 8.05964 15.0001 8.75 15.0001C9.44036 15.0001 10 15.5598 10 16.2501ZM8.75 22.5001C9.44036 22.5001 10 21.9405 10 21.2501C10 20.5598 9.44036 20.0001 8.75 20.0001C8.05964 20.0001 7.5 20.5598 7.5 21.2501C7.5 21.9405 8.05964 22.5001 8.75 22.5001Z" fill="white"/>
</svg>
