<svg width="30" height="30" viewBox="0 0 30 30" fill="none" xmlns="http://www.w3.org/2000/svg">
<path opacity="0.12" d="M2.5 2.5V21.1C2.5 23.3402 2.5 24.4603 2.93597 25.316C3.31947 26.0686 3.93139 26.6805 4.68404 27.064C5.53969 27.5 6.65979 27.5 8.9 27.5H22.5V15V2.5L18.7223 4.17897C18.0526 4.47664 17.7177 4.62548 17.3775 4.65281C17.0767 4.67698 16.7743 4.63276 16.493 4.52348C16.1749 4.39987 15.8966 4.16138 15.3401 3.6844L14.5825 3.03503L14.5825 3.03502C13.8434 2.40147 13.4738 2.0847 13.0593 1.96396C12.694 1.85755 12.306 1.85755 11.9407 1.96396C11.5262 2.0847 11.1566 2.40147 10.4175 3.03503L9.65987 3.6844L9.65986 3.68441C9.10339 4.16138 8.82515 4.39987 8.50701 4.52348C8.22572 4.63276 7.92335 4.67698 7.62254 4.65281C7.28233 4.62548 6.94745 4.47664 6.27769 4.17897L2.5 2.5Z" fill="#E8EAED"/>
<path fill-rule="evenodd" clip-rule="evenodd" d="M11.7309 1.24401C12.2332 1.0977 12.7668 1.0977 13.2691 1.24401C13.5936 1.33853 13.8702 1.50266 14.1427 1.70248C14.4024 1.89295 14.6979 2.14624 15.0496 2.4477L15.0706 2.46571L15.8282 3.11508C16.427 3.62828 16.5943 3.75834 16.7646 3.82451C16.9404 3.89281 17.1294 3.92045 17.3174 3.90534C17.4995 3.89071 17.6971 3.81401 18.4177 3.49374L22.1954 1.81476C22.4274 1.71165 22.6958 1.73291 22.9087 1.87125C23.1216 2.0096 23.25 2.24624 23.25 2.50012V14.2501H24.3H24.3304C24.8646 14.2501 25.3104 14.2501 25.6747 14.2799C26.0546 14.3109 26.4112 14.378 26.7485 14.5499C27.2659 14.8135 27.6866 15.2342 27.9503 15.7516C28.1221 16.0889 28.1892 16.4456 28.2203 16.8255C28.25 17.1897 28.25 17.6355 28.25 18.1697V18.2001V25.0001L28.25 25.0734C28.2502 25.4661 28.2504 25.7691 28.1972 26.0366C27.9802 27.1275 27.1274 27.9803 26.0365 28.1973C25.769 28.2505 25.466 28.2503 25.0733 28.2501L25 28.2501L24.9267 28.2501C24.8794 28.2502 24.8334 28.2502 24.7886 28.2501H8.9H8.86698C7.77484 28.2501 6.90935 28.2501 6.21173 28.1931C5.49834 28.1348 4.89472 28.0132 4.34355 27.7324C3.44978 27.277 2.72312 26.5503 2.26772 25.6566C1.98688 25.1054 1.86527 24.5018 1.80699 23.7884C1.74999 23.0908 1.74999 22.2253 1.75 21.1331L1.75 21.1001V2.50012C1.75 2.24624 1.87844 2.0096 2.09132 1.87125C2.30419 1.73291 2.57261 1.71165 2.8046 1.81476L6.58229 3.49374C7.30291 3.81401 7.50049 3.89071 7.68261 3.90534C7.87061 3.92045 8.05959 3.89281 8.23539 3.82451C8.4057 3.75834 8.57304 3.62828 9.17178 3.11508L9.92937 2.46571L9.9504 2.44769C10.3021 2.14623 10.5976 1.89294 10.8573 1.70248C11.1298 1.50266 11.4064 1.33853 11.7309 1.24401ZM25 26.7501C25.5006 26.7501 25.6414 26.7465 25.7439 26.7261C26.2397 26.6275 26.6273 26.2398 26.726 25.744C26.7464 25.6415 26.75 25.5007 26.75 25.0001V18.2001C26.75 17.6277 26.7494 17.2435 26.7252 16.9476C26.7018 16.6605 26.6599 16.5232 26.6138 16.4326C26.4939 16.1974 26.3027 16.0062 26.0675 15.8864C25.9769 15.8402 25.8396 15.7983 25.5525 15.7749C25.2566 15.7507 24.8724 15.7501 24.3 15.7501H23.25V25.0001C23.25 25.5007 23.2536 25.6415 23.274 25.744C23.3727 26.2398 23.7603 26.6275 24.2561 26.7261C24.3586 26.7465 24.4994 26.7501 25 26.7501ZM22.0504 26.7501H8.9C7.76752 26.7501 6.96326 26.7495 6.33388 26.6981C5.71325 26.6474 5.329 26.551 5.02453 26.3959C4.413 26.0843 3.91582 25.5871 3.60423 24.9756C3.44909 24.6711 3.35271 24.2869 3.30201 23.6662C3.25058 23.0369 3.25 22.2326 3.25 21.1001V3.65419L5.97309 4.86445L6.07432 4.90951C6.64423 5.16338 7.09169 5.3627 7.56248 5.40053C7.97608 5.43375 8.39185 5.37296 8.77862 5.22269C9.21886 5.05165 9.59051 4.73255 10.0639 4.32613L10.148 4.25396L10.9056 3.60459C11.2838 3.28042 11.536 3.06485 11.7443 2.91214C11.945 2.765 12.0604 2.71037 12.1504 2.68416C12.3787 2.61765 12.6213 2.61765 12.8496 2.68416C12.9396 2.71037 13.055 2.765 13.2557 2.91214C13.464 3.06485 13.7162 3.28042 14.0944 3.60459L14.852 4.25396L14.9361 4.32612L14.9361 4.32613L14.9361 4.32613C15.4095 4.73255 15.7811 5.05165 16.2214 5.22269C16.6082 5.37296 17.0239 5.43375 17.4375 5.40053C17.9083 5.3627 18.3558 5.16338 18.9257 4.90951L19.0269 4.86445L21.75 3.65419V15.0001V25.0001L21.75 25.0734C21.7498 25.4661 21.7496 25.7691 21.8028 26.0366C21.853 26.2888 21.9372 26.5283 22.0504 26.7501ZM8 11.2501C8 10.8359 8.33579 10.5001 8.75 10.5001H13.75C14.1642 10.5001 14.5 10.8359 14.5 11.2501C14.5 11.6643 14.1642 12.0001 13.75 12.0001H8.75C8.33579 12.0001 8 11.6643 8 11.2501ZM11.75 16.2501C11.75 15.8359 12.0858 15.5001 12.5 15.5001H16.25C16.6642 15.5001 17 15.8359 17 16.2501C17 16.6643 16.6642 17.0001 16.25 17.0001H12.5C12.0858 17.0001 11.75 16.6643 11.75 16.2501ZM12.5 20.5001C12.0858 20.5001 11.75 20.8359 11.75 21.2501C11.75 21.6643 12.0858 22.0001 12.5 22.0001H16.25C16.6642 22.0001 17 21.6643 17 21.2501C17 20.8359 16.6642 20.5001 16.25 20.5001H12.5ZM10 16.2501C10 16.9405 9.44036 17.5001 8.75 17.5001C8.05964 17.5001 7.5 16.9405 7.5 16.2501C7.5 15.5598 8.05964 15.0001 8.75 15.0001C9.44036 15.0001 10 15.5598 10 16.2501ZM8.75 22.5001C9.44036 22.5001 10 21.9405 10 21.2501C10 20.5598 9.44036 20.0001 8.75 20.0001C8.05964 20.0001 7.5 20.5598 7.5 21.2501C7.5 21.9405 8.05964 22.5001 8.75 22.5001Z" fill="#E8EAED"/>
</svg>
