<svg width="32" height="32" viewBox="0 0 32 32" fill="none" xmlns="http://www.w3.org/2000/svg">
<path d="M16 32C24.837 32 32 24.837 32 16C32 7.163 24.837 0 16 0C7.163 0 0 7.163 0 16C0 24.837 7.163 32 16 32Z" fill="black" fill-opacity="0.2"/>
<path d="M21.4022 8H10.5965C8.6098 8 7.35094 10.1429 8.35071 11.8763L15.0189 23.4341C15.454 24.1886 16.5447 24.1886 16.9798 23.4341L23.65 11.8753C24.6488 10.1458 23.3889 8 21.4032 8H21.4022ZM15.0139 19.9672L13.5612 17.1568L10.0566 10.8894C10.0033 10.7958 9.97571 10.6898 9.97653 10.5821C9.97736 10.4745 10.0066 10.3689 10.0613 10.2761C10.1159 10.1833 10.1941 10.1066 10.2879 10.0537C10.3817 10.0008 10.4878 9.97354 10.5955 9.97475H15.0109V19.9692L15.0129 19.9672H15.0139ZM21.9392 10.8885L18.4365 17.1578L16.9838 19.9672V9.97278H21.4012C21.8858 9.97278 22.1706 10.487 21.9392 10.8885Z" fill="white" fill-opacity="0.2"/>
</svg>
