<svg width="30" height="30" viewBox="0 0 30 30" fill="none" xmlns="http://www.w3.org/2000/svg">
<path fill-rule="evenodd" clip-rule="evenodd" d="M12.3 1.75L12.2679 1.75C11.4551 1.74999 10.7994 1.74999 10.2685 1.79336C9.7219 1.83803 9.24175 1.93239 8.79754 2.15873C8.09193 2.51825 7.51825 3.09193 7.15873 3.79754C6.93238 4.24175 6.83803 4.7219 6.79336 5.26853C6.74999 5.79944 6.74999 6.45506 6.75 7.26789V7.3V10V10.0278C6.75 11.1691 6.74999 12.064 6.79931 12.7868C6.8495 13.5223 6.95323 14.1344 7.18769 14.7004C7.77128 16.1093 8.89066 17.2287 10.2996 17.8123C10.8656 18.0468 11.4777 18.1505 12.2132 18.2007C12.7761 18.2391 13.4433 18.2476 14.25 18.2495V21.75H13.3333C11.0782 21.75 9.25 23.5782 9.25 25.8333C9.25 27.168 10.332 28.25 11.6667 28.25H18.3333C19.668 28.25 20.75 27.168 20.75 25.8333C20.75 23.5782 18.9218 21.75 16.6667 21.75H15.75V18.2495C16.5567 18.2476 17.2239 18.2391 17.7868 18.2007C18.5223 18.1505 19.1344 18.0468 19.7004 17.8123C21.1093 17.2287 22.2287 16.1093 22.8123 14.7004C23.0468 14.1344 23.1505 13.5223 23.2007 12.7868C23.25 12.064 23.25 11.1691 23.25 10.0278V10V7.3V7.26788C23.25 6.45505 23.25 5.79944 23.2066 5.26853C23.162 4.7219 23.0676 4.24175 22.8413 3.79754C22.4818 3.09193 21.9081 2.51825 21.2025 2.15873C20.7582 1.93239 20.2781 1.83803 19.7315 1.79336C19.2006 1.74999 18.5449 1.74999 17.7321 1.75L17.7 1.75H12.3ZM1.25 8.75V10.75C1.25 12.4069 2.59315 13.75 4.25 13.75C4.66421 13.75 5 13.4142 5 13V7.5C5 7.26767 5 7.15151 4.98079 7.05491C4.90188 6.65822 4.59178 6.34812 4.19509 6.26921C4.09849 6.25 3.98233 6.25 3.75 6.25C3.28534 6.25 3.05302 6.25 2.85982 6.28843C2.06644 6.44624 1.44624 7.06643 1.28843 7.85982C1.25 8.05301 1.25 8.28534 1.25 8.75ZM28.75 8.75V10.75C28.75 12.4069 27.4069 13.75 25.75 13.75C25.3358 13.75 25 13.4142 25 13V7.5C25 7.26767 25 7.15151 25.0192 7.05491C25.0981 6.65822 25.4082 6.34812 25.8049 6.26921C25.9015 6.25 26.0177 6.25 26.25 6.25C26.7147 6.25 26.947 6.25 27.1402 6.28843C27.9336 6.44624 28.5538 7.06643 28.7116 7.85982C28.75 8.05301 28.75 8.28534 28.75 8.75Z" fill="white"/>
</svg>
