<svg width="30" height="30" viewBox="0 0 30 30" fill="none" xmlns="http://www.w3.org/2000/svg">
<path opacity="0.12" d="M6.25 7.3C6.25 5.61984 6.25 4.77976 6.57698 4.13803C6.8646 3.57354 7.32354 3.1146 7.88803 2.82698C8.52976 2.5 9.36984 2.5 11.05 2.5H18.95C20.6302 2.5 21.4702 2.5 22.112 2.82698C22.6765 3.1146 23.1354 3.57354 23.423 4.13803C23.75 4.77976 23.75 5.61984 23.75 7.3V9.5C23.75 12.3003 23.75 13.7004 23.205 14.77C22.7257 15.7108 21.9608 16.4757 21.02 16.955C19.9504 17.5 18.5503 17.5 15.75 17.5H14.25C11.4497 17.5 10.0496 17.5 8.98005 16.955C8.03924 16.4757 7.27433 15.7108 6.79497 14.77C6.25 13.7004 6.25 12.3003 6.25 9.5V7.3Z" fill="#E8EAED"/>
<path fill-rule="evenodd" clip-rule="evenodd" d="M11.0179 1.75L11.05 1.75H18.95L18.9822 1.75C19.795 1.74999 20.4506 1.74999 20.9815 1.79336C21.5282 1.83803 22.0083 1.93239 22.4525 2.15873C23.1581 2.51825 23.7318 3.09193 24.0913 3.79754C24.3177 4.24175 24.412 4.7219 24.4567 5.26853C24.4628 5.34319 24.468 5.42032 24.4725 5.5H26.25L26.3233 5.49998C26.716 5.49978 27.019 5.49963 27.2865 5.55284C28.3774 5.76983 29.2302 6.6226 29.4472 7.7135C29.5004 7.98101 29.5003 8.284 29.5001 8.67673L29.5 8.75L29.5001 8.84527V8.8453C29.5002 9.68336 29.5003 10.2168 29.4088 10.6767C29.034 12.561 27.561 14.0339 25.6767 14.4087C25.2705 14.4895 24.807 14.4989 24.1269 14.4999C24.057 14.7111 23.9735 14.9138 23.8733 15.1104C23.3221 16.1924 22.4424 17.072 21.3605 17.6233C20.7024 17.9586 19.9753 18.1075 19.0951 18.1794C18.2308 18.25 17.1553 18.25 15.7836 18.25H15.75V21.75H16.6667C18.9219 21.75 20.75 23.5782 20.75 25.8333C20.75 27.168 19.6681 28.25 18.3334 28.25H11.6667C10.332 28.25 9.25005 27.168 9.25005 25.8333C9.25005 23.5782 11.0782 21.75 13.3334 21.75H14.25V18.25H14.2165C12.8448 18.25 11.7693 18.25 10.905 18.1794C10.0248 18.1075 9.29773 17.9586 8.6396 17.6233C7.55767 17.072 6.67803 16.1924 6.12676 15.1104C6.02658 14.9138 5.94305 14.7111 5.87323 14.4999C5.19311 14.4989 4.72957 14.4895 4.32337 14.4087C2.43909 14.0339 0.966124 12.561 0.591317 10.6767C0.499834 10.2168 0.499913 9.68334 0.500038 8.84527L0.500047 8.75L0.500023 8.67672C0.499828 8.284 0.499678 7.98101 0.552888 7.7135C0.769881 6.6226 1.62265 5.76983 2.71355 5.55284C2.98105 5.49963 3.28405 5.49978 3.67677 5.49998L3.75005 5.5H5.52756C5.53207 5.42032 5.53731 5.34319 5.54341 5.26853C5.58807 4.7219 5.68243 4.24175 5.90877 3.79754C6.2683 3.09193 6.84197 2.51825 7.54758 2.15873C7.9918 1.93239 8.47194 1.83803 9.01858 1.79336C9.54949 1.74999 10.2051 1.74999 11.0179 1.75ZM15 16.75H15.75C17.1626 16.75 18.1768 16.7494 18.973 16.6844C19.7603 16.62 20.2681 16.4964 20.6795 16.2868C21.4792 15.8793 22.1294 15.2291 22.5368 14.4295C22.7465 14.018 22.8701 13.5103 22.9344 12.7229C22.9995 11.9268 23 10.9125 23 9.5V7.3C23 6.44755 22.9995 5.85331 22.9617 5.39068C22.9246 4.9368 22.8555 4.67604 22.7548 4.47852C22.5391 4.05516 22.1949 3.71095 21.7715 3.49524C21.574 3.3946 21.3132 3.32547 20.8594 3.28838C20.3967 3.25058 19.8025 3.25 18.95 3.25H11.05C10.1976 3.25 9.60336 3.25058 9.14073 3.28838C8.68685 3.32547 8.42609 3.3946 8.22857 3.49524C7.8052 3.71095 7.461 4.05516 7.24528 4.47852C7.14464 4.67604 7.07551 4.9368 7.03843 5.39068C7.00063 5.85331 7.00005 6.44755 7.00005 7.3V9.5C7.00005 10.9125 7.00063 11.9268 7.06568 12.7229C7.13001 13.5103 7.25364 14.018 7.46327 14.4295C7.87073 15.2291 8.5209 15.8793 9.32059 16.2868C9.73202 16.4964 10.2398 16.62 11.0271 16.6844C11.8233 16.7494 12.8375 16.75 14.25 16.75H15ZM15 23.25H13.3334C11.9066 23.25 10.75 24.4066 10.75 25.8333C10.75 26.3396 11.1605 26.75 11.6667 26.75H18.3334C18.8396 26.75 19.25 26.3396 19.25 25.8333C19.25 24.4066 18.0935 23.25 16.6667 23.25H15ZM24.5 7.26788L24.5 7H26.25C26.7506 7 26.8914 7.00363 26.9939 7.02402C27.4898 7.12265 27.8774 7.51027 27.976 8.00614C27.9964 8.10862 28 8.2494 28 8.75C28 9.71526 27.9964 10.0884 27.9376 10.384C27.6812 11.6733 26.6733 12.6811 25.3841 12.9376C25.1687 12.9804 24.9123 12.994 24.416 12.9982C24.4207 12.9476 24.4252 12.8966 24.4294 12.8451C24.5001 11.9808 24.5001 10.9054 24.5 9.53377V9.53372V9.53368V9.53363V9.53358V9.5V7.3V7.26788ZM5.50011 7H3.75005C3.24944 7 3.10867 7.00363 3.00618 7.02402C2.51032 7.12265 2.1227 7.51027 2.02407 8.00614C2.00368 8.10862 2.00005 8.2494 2.00005 8.75C2.00005 9.71526 2.00368 10.0884 2.0625 10.384C2.31894 11.6733 3.32676 12.6811 4.616 12.9376C4.83135 12.9804 5.08777 12.994 5.58411 12.9982C5.57935 12.9476 5.57487 12.8966 5.57066 12.8451C5.50004 11.9807 5.50004 10.9053 5.50005 9.53356V9.5V7.3V7.26789L5.50011 7Z" fill="#E8EAED"/>
</svg>
