<svg width="31" height="30" viewBox="0 0 31 30" fill="none" xmlns="http://www.w3.org/2000/svg">
<path opacity="0.12" fill-rule="evenodd" clip-rule="evenodd" d="M15.5007 27.5C22.6343 27.5 28.4173 21.9036 28.4173 15C28.4173 8.09644 22.6343 2.5 15.5007 2.5C8.36697 2.5 2.58398 8.09644 2.58398 15C2.58398 21.9036 8.36697 27.5 15.5007 27.5ZM15.5006 11.25C15.5006 11.25 12.9173 13.1018 12.9173 15.6944C12.9173 19.7685 18.084 19.7685 18.084 15.6944C18.084 13.1018 15.5006 11.25 15.5006 11.25Z" fill="url(#paint0_linear_1770_479)"/>
<path fill-rule="evenodd" clip-rule="evenodd" d="M16.2507 5V3.27191C19.0417 3.43549 21.5725 4.50594 23.538 6.1785L22.7292 6.96095C22.4315 7.24895 22.4236 7.72376 22.7116 8.02147C22.9996 8.31917 23.4744 8.32705 23.7721 8.03905L24.6184 7.22041C26.3568 9.1204 27.4674 11.566 27.6429 14.25H25.834C25.4198 14.25 25.084 14.5858 25.084 15C25.084 15.4142 25.4198 15.75 25.834 15.75H27.6429C27.4674 18.434 26.3568 20.8796 24.6184 22.7796L23.7721 21.961C23.4744 21.673 22.9996 21.6808 22.7116 21.9785C22.4236 22.2762 22.4315 22.751 22.7292 23.039L23.538 23.8215C21.3979 25.6427 18.5875 26.75 15.5007 26.75C12.4139 26.75 9.60365 25.6428 7.46354 23.8217L8.27259 23.039C8.5703 22.751 8.57817 22.2762 8.29017 21.9785C8.00217 21.6808 7.52736 21.673 7.22966 21.961L6.38317 22.7798C4.64462 20.8798 3.53391 18.4342 3.35843 15.75H5.16732C5.58153 15.75 5.91732 15.4142 5.91732 15C5.91732 14.5858 5.58153 14.25 5.16732 14.25H3.35843C3.5339 11.5659 4.64459 9.12026 6.38309 7.22025L7.22909 8.03895C7.52674 8.327 8.00155 8.31922 8.2896 8.02157C8.57766 7.72391 8.56987 7.2491 8.27222 6.96105L7.46345 6.17837C9.42891 4.50589 11.9597 3.43548 14.7507 3.27191V5C14.7507 5.41421 15.0864 5.75 15.5007 5.75C15.9149 5.75 16.2507 5.41421 16.2507 5ZM15.5007 1.75C23.0252 1.75 29.1673 7.65924 29.1673 15C29.1673 22.3408 23.0252 28.25 15.5007 28.25C7.97613 28.25 1.83398 22.3408 1.83398 15C1.83398 7.65924 7.97613 1.75 15.5007 1.75ZM15.5006 11.25L15.9375 10.6404C15.6763 10.4532 15.3248 10.4532 15.0636 10.6404L15.5006 11.25ZM16.2125 12.9758C15.9601 12.6682 15.7067 12.4143 15.5006 12.2256C15.2945 12.4143 15.0411 12.6682 14.7887 12.9758C14.1937 13.7009 13.6673 14.6464 13.6673 15.6944C13.6673 16.5493 13.9349 17.1189 14.2681 17.4692C14.6056 17.8241 15.0524 18 15.5007 18C15.9489 18 16.3958 17.8241 16.7333 17.4692C17.0664 17.1189 17.334 16.5493 17.334 15.6944C17.334 14.6464 16.8076 13.7009 16.2125 12.9758ZM18.834 15.6944C18.834 14.1499 18.0687 12.8732 17.3721 12.0242C17.0181 11.5929 16.6655 11.2518 16.401 11.018C16.2683 10.9006 16.1564 10.8091 16.076 10.7457C16.0357 10.7139 16.0032 10.6891 15.9797 10.6715L15.9514 10.6505L15.9426 10.6441L15.9396 10.6419L15.9384 10.6411L15.938 10.6407C15.9377 10.6406 15.9375 10.6404 15.5006 11.25C15.0636 10.6404 15.0634 10.6406 15.0632 10.6407L15.0627 10.6411L15.0616 10.6419L15.0585 10.6441L15.0498 10.6505L15.0214 10.6715C14.998 10.6891 14.9654 10.714 14.9252 10.7457C14.8447 10.8092 14.7329 10.9006 14.6002 11.018C14.3356 11.2519 13.9831 11.5929 13.6292 12.0242C12.9325 12.8732 12.1673 14.1499 12.1673 15.6944C12.1673 16.8766 12.5456 17.8348 13.1812 18.503C13.8124 19.1667 14.6572 19.5 15.5006 19.5C16.3441 19.5 17.1889 19.1667 17.8201 18.503C18.4557 17.8348 18.834 16.8766 18.834 15.6944Z" fill="url(#paint1_linear_1770_479)"/>
<defs>
<linearGradient id="paint0_linear_1770_479" x1="15.5007" y1="2.5" x2="15.5007" y2="27.5" gradientUnits="userSpaceOnUse">
<stop stop-color="#FF5C00"/>
<stop offset="1" stop-color="#C41111"/>
</linearGradient>
<linearGradient id="paint1_linear_1770_479" x1="15.5007" y1="1.75" x2="15.5007" y2="28.25" gradientUnits="userSpaceOnUse">
<stop stop-color="#FF5C00"/>
<stop offset="1" stop-color="#C41111"/>
</linearGradient>
</defs>
</svg>
