<svg width="31" height="30" viewBox="0 0 31 30" fill="none" xmlns="http://www.w3.org/2000/svg">
<path opacity="0.12" fill-rule="evenodd" clip-rule="evenodd" d="M22.0173 7.5H2.58398V21.1C2.58398 23.3402 2.58398 24.4603 3.01996 25.316C3.40345 26.0686 4.01537 26.6805 4.76802 27.064C5.62367 27.5 6.74378 27.5 8.98399 27.5H22.0173C24.2575 27.5 25.3776 27.5 26.2333 27.064C26.9859 26.6805 27.5978 26.0686 27.9813 25.316C28.4075 24.4796 28.4171 23.3906 28.4173 21.25H27.0007C24.9296 21.25 23.2507 19.5711 23.2507 17.5C23.2507 15.4289 24.9296 13.75 27.0007 13.75H28.4173C28.4171 11.6094 28.4075 10.5204 27.9813 9.68404C27.5978 8.93139 26.9859 8.31947 26.2333 7.93597C25.3776 7.5 24.2575 7.5 22.0173 7.5Z" fill="#0066FF"/>
<path fill-rule="evenodd" clip-rule="evenodd" d="M17.001 3.37078C16.5938 3.25657 16.1407 3.25003 14.947 3.25003H5.08398C4.11749 3.25003 3.33398 4.03353 3.33398 5.00003C3.33398 5.96653 4.11749 6.75003 5.08398 6.75003H15.5007H20.4289L19.4128 5.439C18.6816 4.49547 18.3988 4.14132 18.0591 3.88942C17.741 3.65351 17.3824 3.47774 17.001 3.37078ZM5.08398 1.75003C3.28906 1.75003 1.83398 3.2051 1.83398 5.00003V7.50003V21.1L1.83398 21.133C1.83398 22.2252 1.83397 23.0907 1.89097 23.7883C1.94926 24.5017 2.07087 25.1053 2.3517 25.6565C2.8071 26.5503 3.53376 27.2769 4.42753 27.7323C4.9787 28.0131 5.58233 28.1348 6.29572 28.193C6.99334 28.25 7.85883 28.25 8.95097 28.25H8.98399H22.0173H22.0503C23.1425 28.25 24.008 28.25 24.7056 28.193C25.419 28.1348 26.0226 28.0131 26.5738 27.7323C27.4675 27.2769 28.1942 26.5503 28.6496 25.6565C28.9304 25.1053 29.052 24.5017 29.1103 23.7883C29.1673 23.0907 29.1673 22.2252 29.1673 21.1331V21.1V13.9V13.867C29.1673 12.7749 29.1673 11.9094 29.1103 11.2118C29.052 10.4984 28.9304 9.89475 28.6496 9.34357C28.1942 8.4498 27.4675 7.72315 26.5738 7.26775C26.0226 6.98691 25.419 6.8653 24.7056 6.80702C24.0679 6.75491 23.2898 6.75044 22.3266 6.75006L20.5984 4.52014L20.5305 4.43246C19.8907 3.60656 19.4786 3.07456 18.9526 2.68452C18.4876 2.33973 17.9635 2.08284 17.4061 1.92651C16.7756 1.74967 16.1026 1.7498 15.0579 1.75001L14.947 1.75003H5.08398ZM3.33398 8.25003V21.1C3.33398 22.2325 3.33457 23.0368 3.38599 23.6661C3.4367 24.2868 3.53308 24.671 3.68821 24.9755C3.9998 25.587 4.49699 26.0842 5.10852 26.3958C5.41299 26.5509 5.79724 26.6473 6.41787 26.698C7.04725 26.7494 7.85151 26.75 8.98399 26.75H22.0173C23.1498 26.75 23.9541 26.7494 24.5834 26.698C25.2041 26.6473 25.5883 26.5509 25.8928 26.3958C26.5043 26.0842 27.0015 25.587 27.3131 24.9755C27.4682 24.671 27.5646 24.2868 27.6153 23.6661C27.6519 23.2179 27.6628 22.681 27.666 22H27.0007C24.5154 22 22.5007 19.9853 22.5007 17.5C22.5007 15.0147 24.5154 13 27.0007 13H27.666C27.6628 12.319 27.6519 11.7821 27.6153 11.3339C27.5646 10.7133 27.4682 10.329 27.3131 10.0246C27.0015 9.41303 26.5043 8.91585 25.8928 8.60426C25.5883 8.44912 25.2041 8.35274 24.5834 8.30204C23.9541 8.25061 23.1498 8.25003 22.0173 8.25003H21.959H15.5007H5.08398H3.33398ZM27.6673 14.5H27.0007C25.3438 14.5 24.0007 15.8432 24.0007 17.5C24.0007 19.1569 25.3438 20.5 27.0007 20.5H27.6673V14.5Z" fill="#0066FF"/>
</svg>
