<svg width="33" height="15" viewBox="0 0 33 15" fill="none" xmlns="http://www.w3.org/2000/svg">
<path d="M0.1185 13V1.08H8.2785V3.24H2.5985V6.264H7.4785V8.424H2.5985V13H0.1185ZM7.83225 13L11.8643 1.08H15.1603L19.1923 13H16.4883L15.6883 10.568H11.3203L10.5203 13H7.83225ZM12.0083 8.408H15.0003L13.1763 2.776H13.8483L12.0083 8.408ZM25.9146 13.192C25.0186 13.192 24.1866 13.0373 23.4186 12.728C22.6506 12.4187 21.9786 11.9867 21.4026 11.432C20.8373 10.8667 20.3946 10.2107 20.0746 9.464C19.7546 8.71733 19.5946 7.90667 19.5946 7.032C19.5946 6.15733 19.7493 5.34667 20.0586 4.6C20.3786 3.85333 20.8213 3.20267 21.3866 2.648C21.9626 2.09333 22.6346 1.66133 23.4026 1.352C24.1706 1.04267 25.008 0.888 25.9146 0.888C26.8213 0.888 27.6586 1.04267 28.4266 1.352C29.1946 1.66133 29.8613 2.09333 30.4266 2.648C31.0026 3.20267 31.4453 3.85333 31.7546 4.6C32.0746 5.34667 32.2346 6.15733 32.2346 7.032C32.2346 7.90667 32.0746 8.71733 31.7546 9.464C31.4346 10.2107 30.9866 10.8667 30.4106 11.432C29.8453 11.9867 29.1786 12.4187 28.4106 12.728C27.6426 13.0373 26.8106 13.192 25.9146 13.192ZM25.9146 10.952C26.4586 10.952 26.96 10.856 27.4186 10.664C27.888 10.472 28.2986 10.2053 28.6506 9.864C29.0026 9.512 29.2746 9.096 29.4666 8.616C29.6586 8.136 29.7546 7.608 29.7546 7.032C29.7546 6.456 29.6586 5.93333 29.4666 5.464C29.2746 4.984 29.0026 4.568 28.6506 4.216C28.2986 3.864 27.888 3.59733 27.4186 3.416C26.96 3.224 26.4586 3.128 25.9146 3.128C25.3706 3.128 24.864 3.224 24.3946 3.416C23.936 3.59733 23.5306 3.864 23.1786 4.216C22.8266 4.568 22.5546 4.984 22.3626 5.464C22.1706 5.93333 22.0746 6.456 22.0746 7.032C22.0746 7.608 22.1706 8.136 22.3626 8.616C22.5546 9.096 22.8266 9.512 23.1786 9.864C23.5306 10.2053 23.936 10.472 24.3946 10.664C24.864 10.856 25.3706 10.952 25.9146 10.952ZM28.4426 14.44L24.8906 8.232H27.4506L31.0506 14.44H28.4426Z" fill="white"/>
</svg>
