<svg width="31" height="30" viewBox="0 0 31 30" fill="none" xmlns="http://www.w3.org/2000/svg">
<path opacity="0.12" d="M2.58398 10H28.4173V19.85C28.4173 22.0902 28.4173 23.2103 27.9813 24.066C27.5978 24.8186 26.9859 25.4305 26.2333 25.814C25.3776 26.25 24.2575 26.25 22.0173 26.25H8.98399C6.74378 26.25 5.62367 26.25 4.76802 25.814C4.01537 25.4305 3.40345 24.8186 3.01996 24.066C2.58398 23.2103 2.58398 22.0902 2.58398 19.85V10Z" fill="#8F00FF"/>
<path fill-rule="evenodd" clip-rule="evenodd" d="M8.95098 3L8.98399 3H22.0173L22.0503 3C23.1425 2.99999 24.008 2.99999 24.7056 3.05699C25.419 3.11527 26.0226 3.23688 26.5738 3.51772C27.4675 3.97312 28.1942 4.69978 28.6496 5.59355C28.9304 6.14472 29.052 6.74835 29.1103 7.46173C29.1673 8.15935 29.1673 9.02485 29.1673 10.117V10.15V19.85V19.883C29.1673 20.9752 29.1673 21.8406 29.1103 22.5383C29.052 23.2517 28.9304 23.8553 28.6496 24.4065C28.1942 25.3002 27.4675 26.0269 26.5738 26.4823C26.0226 26.7631 25.419 26.8847 24.7056 26.943C24.008 27 23.1425 27 22.0503 27H22.0173H8.98399H8.95097C7.85883 27 6.99334 27 6.29572 26.943C5.58233 26.8847 4.9787 26.7631 4.42753 26.4823C3.53376 26.0269 2.8071 25.3002 2.3517 24.4065C2.07087 23.8553 1.94926 23.2517 1.89097 22.5383C1.83397 21.8406 1.83398 20.9751 1.83398 19.883L1.83398 19.85V10.15L1.83398 10.117C1.83398 9.02486 1.83397 8.15936 1.89097 7.46173C1.94926 6.74835 2.07087 6.14472 2.3517 5.59355C2.8071 4.69978 3.53376 3.97312 4.42753 3.51772C4.9787 3.23688 5.58233 3.11527 6.29572 3.05699C6.99334 2.99999 7.85884 2.99999 8.95098 3ZM6.41787 4.55201C5.79724 4.60271 5.41299 4.69909 5.10852 4.85423C4.49699 5.16582 3.9998 5.663 3.68821 6.27453C3.53308 6.579 3.4367 6.96325 3.38599 7.58388C3.34937 8.0321 3.33853 8.56901 3.33533 9.25H27.666C27.6628 8.56901 27.6519 8.0321 27.6153 7.58388C27.5646 6.96325 27.4682 6.579 27.3131 6.27453C27.0015 5.663 26.5043 5.16582 25.8928 4.85423C25.5883 4.69909 25.2041 4.60271 24.5834 4.55201C23.9541 4.50058 23.1498 4.5 22.0173 4.5H8.98399C7.8515 4.5 7.04725 4.50058 6.41787 4.55201ZM3.33398 19.85V10.75H27.6673V19.85C27.6673 20.9825 27.6667 21.7867 27.6153 22.4161C27.5646 23.0367 27.4682 23.421 27.3131 23.7255C27.0015 24.337 26.5043 24.8342 25.8928 25.1458C25.5883 25.3009 25.2041 25.3973 24.5834 25.448C23.9541 25.4994 23.1498 25.5 22.0173 25.5H8.98399C7.85151 25.5 7.04725 25.4994 6.41787 25.448C5.79724 25.3973 5.41299 25.3009 5.10852 25.1458C4.49699 24.8342 3.9998 24.337 3.68821 23.7255C3.53308 23.421 3.4367 23.0367 3.38599 22.4161C3.33457 21.7867 3.33398 20.9825 3.33398 19.85ZM7.75049 14.25C7.33628 14.25 7.00049 14.5858 7.00049 15C7.00049 15.4142 7.33628 15.75 7.75049 15.75H12.9172C13.3314 15.75 13.6672 15.4142 13.6672 15C13.6672 14.5858 13.3314 14.25 12.9172 14.25H7.75049Z" fill="#8F00FF"/>
</svg>
